<?xml version="1.0" encoding="utf-8"?>
<svg xmlns="http://www.w3.org/2000/svg" width="108.672" height="38.25" viewBox="0 0 108.672 38.25">
    <defs>
        <style>
            .cls-1{fill:#ff3c00}.cls-2{fill:#212f49}.cls-3{fill:#fff}.cls-4{fill:#c6cce5}
        </style>
    </defs>
    <g id="Group_1">
        <g id="Group_19">
            <path id="Path_1" d="M310.079 609.08c-.135-.069-.27-.135-.407-.2l-.156-.071-.023-.01-.065-.03-.03-.013h-.008c-.12-.053-.239-.105-.36-.156a16.816 16.816 0 0 0-3.748-1.085c-.483-.081-.972-.142-1.468-.179-.442-.035-.89-.053-1.341-.053a17.037 17.037 0 0 0-2.007.118c-.021 0-.04 0-.06.008l-.061.006-.177.023-.058.008-.112.016-.06.009-.06.009c-.144.022-.288.047-.43.073-.084.014-.169.03-.252.047l-.071.014-.07.014-.252.053-.168.039-.074.017-.073.018a16.932 16.932 0 0 0-2.529 32.082.822.822 0 0 1 .873-.347 13.641 13.641 0 0 0 1.756.365c.675.04 1.355-.008 2.028.066.642.071 1.281.133 1.925.186.606.049 1.2.244 1.808.239a10.031 10.031 0 0 0 3.29-.793 17.642 17.642 0 0 0 3.037-1.435 2.966 2.966 0 0 0 .507-.428 4.458 4.458 0 0 1 .676-.511l.2-.127.049-.038c.071-.064.134-.133.2-.2l.007-.008a.835.835 0 0 1 .368-.839 6.885 6.885 0 0 0 1.124-.924c.325-.343.584-.835 1.1-1.059a.8.8 0 0 1 1.066.28.667.667 0 0 1 .048.1l.04-.054.008-.01a.189.189 0 0 0 .018-.026q.259-.349.5-.712t.457-.728a16.931 16.931 0 0 0-6.961-23.751z" class="cls-1" transform="translate(-285.546 -605.724)"/>
            <g id="Group_13" transform="translate(1.626)">
                <path id="Path_2" d="M602.955 576.156v-.179l-.093.208a.169.169 0 0 1 .093-.029z" class="cls-2" transform="translate(-590.292 -575.823)"/>
                <g id="Group_3" transform="translate(.591 .272)">
                    <path id="Path_3" d="M578.852 578.676a.339.339 0 0 0 .033.287 4.891 4.891 0 0 1 .3 1.345.316.316 0 0 1-.014.178.228.228 0 0 1-.074.08.747.747 0 0 1-.291.106 5.434 5.434 0 0 1-1.145.108c-.024 0-.055-.005-.062-.028a.059.059 0 0 1 .006-.038 9.07 9.07 0 0 1 1.289-2.095z" class="cls-3" transform="translate(-566.748 -578.62)"/>
                    <g id="Group_1-2" transform="translate(10.599 .033)">
                        <path id="Path_4" d="M573.36 579.361a13.876 13.876 0 0 1-1.344 4.587 4.91 4.91 0 0 1 1.425-.583 2.921 2.921 0 0 0 .623-.181.708.708 0 0 0 .408-.476.892.892 0 0 0-.052-.421 13.52 13.52 0 0 1-.965-2.59z" class="cls-4" transform="translate(-572.016 -579.361)"/>
                    </g>
                    <path id="Path_5" d="M362.885 663.965c-.069-.1-.136-.2-.2-.307a9.5 9.5 0 0 1-1.4-3.258c-.045-.233-.079-.466-.1-.7-.095-.867-.087-1.749-.213-2.609-.053.017-.107.032-.161.048l-.094.027q-.318.1-.643.184c-.027.009-.057.016-.087.023-.066.02-.134.039-.2.056a.018.018 0 0 1-.012 0c-.261-1.252-.463-2.518-.7-3.777a9.081 9.081 0 0 0-.478-1.828c-.032-.082-.071-.164-.109-.244h-.018c-.047-.31-.1-.621-.161-.926a10.506 10.506 0 0 0-2.2-4.86c.11-.174.216-.351.315-.52a8.527 8.527 0 0 0 .785-2.072c-.044-.183-.082-.367-.11-.554-.21-1.4.109-2.868-.3-4.225l-1.32 1.547a1.288 1.288 0 0 1-.774.542h-.028a5.952 5.952 0 0 1-1.814 1.561c-.312.187-.766.423-.887.8a1.215 1.215 0 0 0-.041.416c-.052.014-.1.03-.149.043l-.355.1-.578.168-.8.231c-.039.013-.077.023-.116.034l-1.8.521c-.057.016-.112.034-.169.049-.007 0-.013.005-.021.008q-.717.2-1.437.414l-.442.127.633-1.5a5.743 5.743 0 0 0-2.138.208h-.009a5.7 5.7 0 0 0-.876.343l.021.078-.092.161c-.056.1-.112.2-.162.307q-.068.134-.132.273l.113.16c-.039.084-.188.009-.225.094a8.439 8.439 0 0 0-.591 2.22 2.584 2.584 0 0 1-.169.787.444.444 0 0 1-.021.043.352.352 0 0 1-.026.047 1.753 1.753 0 0 1-.761.6 8.616 8.616 0 0 1-1.767.66h-.008c-.184.047-.37.088-.559.122a8.774 8.774 0 0 1-2.535.105h-.016c-.07-.006-.139-.014-.209-.023a1.623 1.623 0 0 0-.794.016c-.511.2-.622.846-.631 1.41v.123c0 .279 0 .56.005.839q.008 1.056.013 2.107a1.138 1.138 0 0 0 1.045 1.381c.179.051.359.1.539.149a.032.032 0 0 1 .012.005l.022.006h.008l.959.262a.226.226 0 0 0 .029.008h.007l2.688.744v.03a.994.994 0 0 1-.016.108 1.147 1.147 0 0 1-.04.169c-.009.031-.02.06-.031.09a1.8 1.8 0 0 1-.251.434 10.637 10.637 0 0 1-1.1 1.068 3.7 3.7 0 0 0-.371.4 1.555 1.555 0 0 0-.352.829 1.982 1.982 0 0 0 .7 1.512.036.036 0 0 0 .013.012 4.746 4.746 0 0 0 5.614.635l.165-.105a6.323 6.323 0 0 0 .987-.847.255.255 0 0 0 .019-.019c.394-.405.759-.847 1.142-1.263l.047-.053a7.03 7.03 0 0 1 1.213-1.07 2.747 2.747 0 0 1 .125.313.009.009 0 0 0 0 .005l.01.036a.57.57 0 0 1 .111 1.09c0 .03 0 .061-.006.091-.013.172-.034.34-.064.513 0 .017 0 .034-.008.049a.565.565 0 0 1 .053-.032l.053-.032a5.527 5.527 0 0 0-.126 1.009v.082l-.091.149-1.247 2.042a6.109 6.109 0 0 0-.668 1.323 2.624 2.624 0 0 0-.11.52c-.006.057-.009.114-.012.172-.005.118 0 .236 0 .356v.026a2.454 2.454 0 0 1-.057.611l-.025.081a.665.665 0 0 1-.025.071c0 .012-.008.023-.013.035a.1.1 0 0 1-.007.018.069.069 0 0 1-.009.017c-.013.035-.03.068-.044.1-.118.243-.281.466-.422.7a5.745 5.745 0 0 0-.744 2.086c.043.014.086.029.13.039a16.526 16.526 0 0 0 1.973.464h.013l.321.053.2.029h.026a17.032 17.032 0 0 0 8.8-1.13q.495-.207.974-.442a16.977 16.977 0 0 0 4.841-3.57c.12-.127.238-.256.353-.386a.153.153 0 0 1 .014-.014l.023-.029.03-.032.08-.092c.009-.01.018-.023.03-.035.029-.032.057-.068.086-.1s.053-.061.078-.092.07-.083.1-.125l.005-.005a.039.039 0 0 0 .007-.009q.084-.1.16-.2a.054.054 0 0 0 .013-.017c.016-.018.031-.038.045-.057l.013-.014c-.1-.075-.193-.216-.284-.351zm-14.419-3.318a.764.764 0 0 1-.019-.292.608.608 0 0 1 .048-.181v-.005a.586.586 0 0 1 .07-.123c-.024.2-.065.401-.099.601z" class="cls-3" transform="translate(-335.112 -635.748)"/>
                    <g id="Group_2" transform="translate(3.339 2.737)">
                        <path id="Path_6" d="M434.384 665.757a7.978 7.978 0 0 1-.891-1.294l-.051-.09a11.5 11.5 0 0 1-1.137-3.319l-.005-.022q-.084-.438-.144-.879l-.052-.422q-.068-.622-.107-1.25-.318.1-.643.185c-.027.009-.057.016-.087.023-.066.02-.134.039-.2.056a.018.018 0 0 1-.012 0 .4.4 0 0 1-.053.014c-.149-.663-.281-1.33-.41-2l-.7-3.578-.008-.045a10.053 10.053 0 0 0-.288-1.167 4.194 4.194 0 0 0-.37-.838 1.378 1.378 0 0 0-.034-.226 11.289 11.289 0 0 0-1.854-3.7.077.077 0 0 0-.007-.01l-.043-.061c.022-.026.046-.049.066-.075.06-.069.118-.136.17-.2a2.264 2.264 0 0 0 .188-.265.073.073 0 0 0 .01-.017c.007-.01.012-.022.018-.033s.016-.033.025-.048 0-.014 0-.023a3.169 3.169 0 0 1 .261-1.207q.214-.624.368-1.264a13.67 13.67 0 0 0 .3-1.8 3.159 3.159 0 0 0-.333-2.031c-.01-.047-.022-.095-.035-.142l-.021-.071-.014-.043c-.012-.036-.023-.069-.036-.1l-.073.052-.033.023-.017.013c-.022-.019-.043-.039-.066-.057a.268.268 0 0 0-.03-.023v.074c0 .066.005.133.005.2v.151a5.2 5.2 0 0 1-.586 1.4c-.2.373-.4.747-.611 1.117a19.782 19.782 0 0 1-1.289 2.047 1.9 1.9 0 0 1-.721.67.641.641 0 0 1-.973-.66 1.665 1.665 0 0 1 .242-.656.019.019 0 0 1 0-.008l.065-.105c.107-.17.226-.338.326-.509a.319.319 0 0 0 .062-.235.162.162 0 0 0-.087-.1.44.44 0 0 0-.34.018 3.157 3.157 0 0 0-.726.494l-.218.179a.463.463 0 0 1-.013.056c-.009.136.008.279.005.413a.543.543 0 0 1-.1.3c-.008.008-.013.017-.021.026l-.2.045-.13.031-.6.149-1.032.251h-.005l-1.693.417a.563.563 0 0 0-.311-.281c-.117-.042-.246-.043-.365-.081-.259-.082-.432-.32-.654-.475a1.531 1.531 0 0 0-.96-.235 4.558 4.558 0 0 0-.984.2l-.78.22a.331.331 0 0 0-.246.187 1.359 1.359 0 0 0-.307 1.164 1.842 1.842 0 0 1 1.042.15.675.675 0 0 1 .445.525 1.036 1.036 0 0 1-.047.272 3.65 3.65 0 0 0 .171 1.776 1.9 1.9 0 0 1 .248-.624 4.6 4.6 0 0 1 2.243-1.954 1.259 1.259 0 0 0 .371-.193.53.53 0 0 0 .093-.107c.056 0 .111-.005.167-.005a2.11 2.11 0 0 1 1.51.577 2.421 2.421 0 0 1 .721 1.7 3.632 3.632 0 0 1-.287 1.5 7.341 7.341 0 0 1-1.239 1.9 1.853 1.853 0 0 1 1.487 1.324 2.849 2.849 0 0 1-.236 2.047 7.852 7.852 0 0 1-.709 1.111l-2.357 3.269a9.105 9.105 0 0 1-3.324 3.24 4.658 4.658 0 0 1-5.061-.941c-.049-.049-.1-.1-.144-.149l-.075-.086a.7.7 0 0 1-.051-.058 1.647 1.647 0 0 0 .637 1.221 3.283 3.283 0 0 0 .465.344 5.506 5.506 0 0 0 5.043.26 5.177 5.177 0 0 0 .931-.534 4.934 4.934 0 0 0 .7-.611 10.562 10.562 0 0 1 1.944-2.055l.088.183v.007l.1.21.064.135.01.018.055.118.1.21v.075l-.005.091-.039.768-.005.127.1-.109q.041-.039.078-.078a4.5 4.5 0 0 1 2.587-1.16 5.418 5.418 0 0 1 2.618-.025 2.922 2.922 0 0 1 1.454 1.068 4.666 4.666 0 0 1 .79 1.82 5.809 5.809 0 0 1-.129 3.483c-.491 1.216-1.543 2.163-1.925 3.417 1.035-.327 2.3-.6 3.159-.053a16.978 16.978 0 0 0 4.841-3.57c.12-.127.238-.256.353-.386a.154.154 0 0 1 .014-.014l.023-.029.03-.032.08-.092c.009-.01.018-.023.03-.035.029-.032.057-.068.086-.1s.053-.061.078-.092.07-.083.1-.125l.005-.005a.037.037 0 0 0 .006-.009q.084-.1.16-.2a.053.053 0 0 0 .013-.017l-.012-.028z" class="cls-4" transform="translate(-409.732 -639.799)"/>
                        <path id="Path_7" d="M519.81 784.351c-.042.006-.084.014-.125.023z" class="cls-4" transform="translate(-514.766 -777.882)"/>
                    </g>
                </g>
                <g id="Group_12">
                    <path id="Path_8" d="M911.965 1061.547l-.04.052c-.021.029-.043.056-.065.083l-.042.053-.008.013-.013.014c-.014.02-.03.039-.045.057v-.006q-.275-.407-.513-.813c-.039-.069-.079-.136-.117-.2-.075-.131-.147-.265-.218-.4a14.645 14.645 0 0 1-.907-2.146c-.136-.415-.244-.828-.323-1.142l-.005-.022c-.036-.334-.058-.672-.077-1 0-.047-.006-.1-.009-.144-.027-.473-.056-.958-.123-1.432l.161-.048.108-.031c.018-.007.034-.013.052-.018.074.5.105 1.012.134 1.51.021.37.043.752.083 1.122.078.308.182.709.314 1.109a14.235 14.235 0 0 0 .889 2.1 14.091 14.091 0 0 0 .764 1.289z" class="cls-2" transform="translate(-883.164 -1032.851)"/>
                    <g id="Group_4" transform="translate(11.831 9.256)">
                        <path id="Path_9" d="M586.978 783.941c-.507-1.306-.516-3.492 1.129-4a1.518 1.518 0 0 1 2.059.953 5.749 5.749 0 0 1-.184 2.345.081.081 0 0 0 .149.058c.95-1.583.583-4.189-1.732-3.863-2.152.3-2.546 2.965-1.511 4.545.03.045.111.014.09-.041z" class="cls-2" transform="translate(-586.34 -779.409)"/>
                    </g>
                    <g id="Group_5" transform="translate(7.615 14.529)">
                        <path id="Path_10" d="M492.195 898.232c.584-.185 1.4-.575 2-.273.639.319.1 1.478-.022 2a.133.133 0 0 0 .225.123c.617-.61 1.161-1.973.236-2.574a1.946 1.946 0 0 0-2.525.615.074.074 0 0 0 .085.1z" class="cls-2" transform="translate(-492.1 -897.272)"/>
                    </g>
                    <path id="Path_11" d="M495.945 928.106c-.081 0-.158.012-.233.024a.379.379 0 0 0-.074.013 1.506 1.506 0 0 0-.772.4c-.257.239-.592.713-.33 1.058a.569.569 0 0 0 .939-.144 3.375 3.375 0 0 0 .213-.6 2.334 2.334 0 0 1 .1-.279c.045-.093.063-.175.112-.255l.014-.018a.414.414 0 0 1 .079-.032c.079-.045.033-.173-.048-.167z" class="cls-2" transform="translate(-486.721 -912.198)"/>
                    <g id="Group_6" transform="translate(1.454 15.278)">
                        <path id="Path_12" d="M354.4 914.092c.073.289.184.566.246.859l.216-.175c-.049-.023-.061-.068-.092-.109a.1.1 0 0 0-.127-.03c-.217.1-.041.361.111.415.11.039.212-.089.179-.19a2.147 2.147 0 0 0-.432-.833c-.044-.048-.115.007-.1.063z" class="cls-2" transform="translate(-354.4 -914.011)"/>
                    </g>
                    <path id="Path_13" d="M349.248 907.356a2.273 2.273 0 0 1 .022.571.829.829 0 0 0 .061.484.407.407 0 0 0 .666.1c.182-.233.047-.589-.078-.814a1.751 1.751 0 0 0-.1-.19 1.022 1.022 0 0 0-.532-.462c-.061-.024-.143.035-.1.1a.55.55 0 0 1 .061.211z" class="cls-2" transform="translate(-347.951 -892.078)"/>
                    <g id="Group_7" transform="translate(11.697 2.376)">
                        <path id="Path_14" d="M583.81 625.642a3.694 3.694 0 0 1-.464.038 1.828 1.828 0 0 0 .169.2.19.19 0 0 0 .309-.192c-.003-.016-.01-.031-.014-.046z" class="cls-2" transform="translate(-583.346 -625.642)"/>
                    </g>
                    <g id="Group_8" transform="translate(15.146 7.887)">
                        <path id="Path_15" d="M661.922 750.229a.928.928 0 0 0-.1-.968 1.241 1.241 0 0 0-1.113-.426c-.148.023-.309.123-.281.3.032.2.248.2.406.2.436 0 1.014.319.938.837-.012.081.109.146.145.057z" class="cls-2" transform="translate(-660.429 -748.824)"/>
                    </g>
                    <path id="Path_16" d="M532.828 689.362h.008z" class="cls-2" transform="translate(-523.388 -684.132)"/>
                    <g id="Group_9" transform="translate(11.704 2.372)">
                        <path id="Path_17" d="M583.5 625.592a.723.723 0 0 0 .237.174.167.167 0 0 0 .24-.105.709.709 0 0 0 .009-.111 3.578 3.578 0 0 1-.486.042z" class="cls-2" transform="translate(-583.496 -625.55)"/>
                    </g>
                    <g id="Group_10">
                        <path id="Path_18" d="M752.2 668.635a12.113 12.113 0 0 1-1.516 2.748 7.462 7.462 0 0 0-1.182 1.863 1.3 1.3 0 0 0-.066.779.633.633 0 0 0 .565.478.9.9 0 0 0 .6-.328 5.112 5.112 0 0 0 1.079-1.6 8.73 8.73 0 0 0 .4-1.266 7.994 7.994 0 0 0 .32-3.088z" class="cls-2" transform="translate(-730.273 -663.942)"/>
                        <path id="Path_19" d="M350.824 599.766a1.445 1.445 0 0 0 .942-.118 4.192 4.192 0 0 1-1.456-1.685 10.232 10.232 0 0 1-.622-1.62c.173.082.351.149.518.239a4.038 4.038 0 0 1 .517.346 3.353 3.353 0 0 0-.447-1.235 10.727 10.727 0 0 1-.616-1.172 6.819 6.819 0 0 1-.309-1.124v-.017c-.118-.752-.19-1.511-.331-2.259a9.694 9.694 0 0 0-.568-1.923c.021.01.039.023.06.035a2.869 2.869 0 0 0 1.571.374l-.486-.717a34.447 34.447 0 0 1-1.742-4.733 3.168 3.168 0 0 0 .746.218 11.762 11.762 0 0 1-.974-1.875 20.653 20.653 0 0 0-1.871-3.089 5.8 5.8 0 0 0-.482-.613 3.469 3.469 0 0 0-.283-.27 5.977 5.977 0 0 0 .06-.891 6.441 6.441 0 0 0-.221-1.672c-.007-.023-.012-.045-.02-.068s-.009-.034-.014-.051a5.474 5.474 0 0 0-.235-.641.267.267 0 0 0-.161-.151.243.243 0 0 0-.143 0 .259.259 0 0 0-.2.073c-.094.086-.185.175-.275.266l-.022.022-.044.047c-.307.308-.594.631-.876.947-.082.094-.168.187-.252.282l-.013-.006a.024.024 0 0 1 0 .009 11 11 0 0 1-1.665-1.239c-.266-.294-.56-.666-.832-1.037l-.064-.087s0-.007-.006-.009c-.543-.742-1-1.445-1-1.445a2.6 2.6 0 0 0-.465 1.271c0 .026-.006.051-.008.075a4.286 4.286 0 0 0 0 .748c0 .071.008.138.016.2a7.3 7.3 0 0 0-3.2-.489c-.049-.132-.095-.268-.138-.4-.009-.022-.014-.045-.023-.068-.1-.327-.2-.661-.291-.986-.056-.2-.113-.394-.17-.589a.126.126 0 0 0-.1-.09.147.147 0 0 0-.125.027.141.141 0 0 0-.09.049 7.331 7.331 0 0 0-1.2 1.933.039.039 0 0 0-.005.013c-.012.022-.021.044-.031.068-.023.051-.044.1-.066.156s-.039.092-.056.14c-.112.017-.19.031-.218.038h-.014a11.135 11.135 0 0 0-1.254.338 10.21 10.21 0 0 0-2 .912 9.649 9.649 0 0 0-2.164 1.7 12.07 12.07 0 0 1 3.41-.221l.231.029q.138.018.277.043a9.366 9.366 0 0 0-3.929 3.946s-.021.042-.053.113c-.134.268-.257.54-.366.826 0 .009 0 .017-.006.023-.121.305-.253.664-.369 1.05a14.368 14.368 0 0 1 1.767-1.236 13.251 13.251 0 0 1 2.212-1.024l.061-.021a.865.865 0 0 0 .1.575 2.453 2.453 0 0 0-.518.631c-.307.5-.81 1.891-.408 2.53a10.481 10.481 0 0 1-2.178.953c-.188.05-.381.093-.585.127a12.447 12.447 0 0 1-3.389.181 1.509 1.509 0 0 0-1.454.427c-.5.628-.215 1.342-.155 2.053a22.179 22.179 0 0 0-.117 2.571 2.163 2.163 0 0 0 1.18 1.512 12.891 12.891 0 0 0 2.554.809 9.937 9.937 0 0 0 1.545.366 8.013 8.013 0 0 1-.5.668c-.278.315-.637.524-.931.817a1.727 1.727 0 0 0-.518 1.182 1.656 1.656 0 0 0 .034.431 3.162 3.162 0 0 0 1.727 2.046 4.9 4.9 0 0 0 1.539.6 5.123 5.123 0 0 0 4.223-.607 10.5 10.5 0 0 0 1.7-1.691 9.086 9.086 0 0 1 1.351-1.223c-.009.016-.021.032-.03.051l-.036.071a6.03 6.03 0 0 0-.472 1.539l-.034.11c-.032.1-.07.209-.118.338-.194.392-.426.777-.652 1.15-.2.325-.4.66-.577 1s-.343.677-.512 1.039a4.333 4.333 0 0 0-.351.578 2.053 2.053 0 0 0 0 1.5 7.108 7.108 0 0 0-.657 1.354l-.074.186c-.233.578-.434 1.154-.6 1.715.053.018.105.036.158.052s.1.036.157.052.112.036.169.052.086.029.13.039c.171-.6.364-1.189.587-1.769.134-.345.305-.691.453-1.044.02.062.041.123.062.18.2.55.577 1.026.746 1.583.019.061.116.034.108-.028a6.08 6.08 0 0 0-.254-1.106c-.05-.321-.1-.642-.173-.96a3.7 3.7 0 0 1-.171-1.206 4.167 4.167 0 0 1 .482-1.233l.007-.014c.306-.473.6-.953.867-1.449q.2-.381.383-.774a5.185 5.185 0 0 0 .519-1.075 3.368 3.368 0 0 0 .156-.885 2.746 2.746 0 0 1 .8-1.365 5.648 5.648 0 0 1 1.681-.711 6.3 6.3 0 0 0 2.739-1.674 6.185 6.185 0 0 0 1.429-5.124 3.4 3.4 0 0 0-.426-1.4.062.062 0 0 0-.114.034 11.349 11.349 0 0 1 .1 1.939c-.025.392-.118.8-.125 1.2a5.931 5.931 0 0 1-1.149 2.765 7.571 7.571 0 0 1-1.3 1.038 8.162 8.162 0 0 1-1.131.553l-.174.054c-.639.1-1.272.266-1.913.355a2.34 2.34 0 0 0-1.151.411 8.669 8.669 0 0 0-1.874 2.009 5.061 5.061 0 0 1-2.114 1.618 5.366 5.366 0 0 1-1.758.292 6.637 6.637 0 0 1-1.932-.438 5.4 5.4 0 0 1-1.1-.812c-.112-.131-.234-.255-.348-.382a1.722 1.722 0 0 1-.34-1.324 1.172 1.172 0 0 1 .068-.122 1.774 1.774 0 0 1 .447-.4 3.449 3.449 0 0 0 .931-.769 2.649 2.649 0 0 0 .693-1.033c.047-.007.095-.015.143-.026.132.007.264.011.395.012-.1.124-.2.253-.3.386a5.1 5.1 0 0 0-1.05 1.7 1.138 1.138 0 0 0 .14 1.2c.886 1.159 2.785 1.006 3.949.5 2.823-1.223 3.876-4.912 4.266-7.724v-.006a3.392 3.392 0 0 1 .351 1.067.124.124 0 0 0 .237-.006c.133-.553.028-1.517-.554-1.8a1.329 1.329 0 0 0-.9 0 1.856 1.856 0 0 0-.8.573c-.078.077.026.181.113.139a2.678 2.678 0 0 1 .592-.15c.083-.017.2-.048.329-.067a19.082 19.082 0 0 1-1.708 1.838 7.551 7.551 0 0 1-2.455 1.4 9.6 9.6 0 0 1-5.919-.422c-.422-.132-.841-.277-1.252-.442-.69-.277-1.122-.583-1.1-1.408a9.166 9.166 0 0 1 .216-1.8 5.588 5.588 0 0 1-.181-.989c.034-.505.157-1 .607-1.031.669-.048 1.27.508 1.777.865.045.032.135 0 .118-.065a1.717 1.717 0 0 0-.407-.736c.166-.033.335-.059.5-.078s.348-.027.522-.046c.236-.015.458-.022.652-.03a18.228 18.228 0 0 1 2.98.238.064.064 0 0 0 .036-.12 5.478 5.478 0 0 0-1.235-.454 7.655 7.655 0 0 0 4.51-4.424c.023-.054-.054-.1-.081-.044a6.706 6.706 0 0 1-.676 1.072.7.7 0 0 0-.3-.128.709.709 0 0 0-.366.042.323.323 0 1 1-.394.29 1.528 1.528 0 0 0-.335.758 1.618 1.618 0 0 0-.006.462c-.092.074-.186.144-.28.214a2.911 2.911 0 0 1 .126-1.592 2.482 2.482 0 0 1 .449-.816c.244-.269 1.024-.567 1.327-.144a.052.052 0 0 0 .088-.055 1.062 1.062 0 0 0-.939-.5.729.729 0 0 0-.249.055 1.6 1.6 0 0 1 .043-.386.415.415 0 0 1 .134-.206c.132-.037.267-.073.4-.1h.159a7.843 7.843 0 0 1 1.047.108c.067.008.154-.066.1-.135a.872.872 0 0 0-.236-.2c.4-.08.807-.157 1.211-.25a8.238 8.238 0 0 0-.609 1.165 2.788 2.788 0 0 0-.17.442.113.113 0 0 1-.009.025.275.275 0 0 0-.014.056 4.8 4.8 0 0 0-.161.911 6.285 6.285 0 0 1 1.252-1.173l.064-.039a6.472 6.472 0 0 1 1.138-.581c.008 0 .014-.006.021-.008l.165-.064a13.724 13.724 0 0 1 1.78-.509h.005l.133-.033c.282-.062.563-.121.842-.179h.022a6.357 6.357 0 0 0 1.032-.164 2.316 2.316 0 0 0 .627-.247 1.959 1.959 0 0 1 .235-.411.019.019 0 0 1 0-.008l.078-.1a2.881 2.881 0 0 1 .265-.291c.5-.483 1.057-.818 1.577-1.3a9.332 9.332 0 0 0 2.012-2.366c.027-.053.055-.105.079-.16a.294.294 0 0 0 .014-.027.063.063 0 0 0 0 .016V575.689c.034.663.152 1.323.162 1.989a8.912 8.912 0 0 1-.318 2.319c-.156.624-.323 1.243-.533 1.851a7.076 7.076 0 0 1-.3.73c-.127.27-.264.536-.391.808a.21.21 0 0 1-.014.03c-.027.057.051.125.1.079l.087-.084a3.656 3.656 0 0 0 .287-.316l.016.023a20.194 20.194 0 0 1 2.212 4.847c.624 2.227.822 4.542 1.28 6.8a16.022 16.022 0 0 0 1.419 4.269c.157.3.329.6.514.881a8.416 8.416 0 0 0 1.526 1.789l.031.027q.084-.1.16-.2a.054.054 0 0 0 .013-.017c.016-.018.031-.038.045-.057l.013-.014.008-.013.042-.053.065-.083.04-.052.084-.114.008-.01a.188.188 0 0 0 .018-.026q.259-.349.5-.712a2.612 2.612 0 0 1-.475-.614zm-16.206-8.415q-.02.079-.038.159v-.012a2.817 2.817 0 0 1-.915 1.62 2.256 2.256 0 0 1-.656.284 5.864 5.864 0 0 1-1.578.228 7.986 7.986 0 0 0 3.188-2.279zm-5.793 4.566a2.14 2.14 0 0 1 1.709-.243 3.552 3.552 0 0 0-.525.42.033.033 0 0 0 .033.054 5.645 5.645 0 0 1 1.47-.461 3.2 3.2 0 0 1 1.218.213 4 4 0 0 1-.466.518 4.888 4.888 0 0 1-2.174 1.191 2.894 2.894 0 0 1-1.4-.019 1.17 1.17 0 0 1-.826-.776c.336-.285.611-.64.962-.897zm5.9-21.2l-.075.007c-.166.009-.365.03-.574.055l-.321.045-.069.009c.249-.628.541-1.236.817-1.852a5.55 5.55 0 0 0 .286 1.732l-.064.004z" class="cls-2" transform="translate(-321.899 -572.541)"/>
                    </g>
                    <g id="Group_11" transform="translate(26.051 22.903)">
                        <path id="Path_20" d="M906.805 1090.378l-.042.053-.008.013-.013.014-.045.057a.052.052 0 0 1-.013.017q-.076.1-.16.2l-.006.009-.025-.036a13.568 13.568 0 0 1-.88-1.446c-.007-.01-.012-.022-.017-.032-.156-.295-.307-.6-.447-.909-.117-.255-.227-.517-.329-.782a9.38 9.38 0 0 1-.657-2.914.157.157 0 0 1 .249-.144.177.177 0 0 1 .07.1c.017.066.034.13.049.195.082.328.158.657.242.985.095.381.2.761.321 1.134a14.207 14.207 0 0 0 .9 2.12c.178.344.372.678.579 1q.107.173.222.343a.1.1 0 0 0 .01.023z" class="cls-2" transform="translate(-904.163 -1084.447)"/>
                    </g>
                </g>
                <path id="Path_21" d="M493.651 638.07a19.834 19.834 0 0 0-7.164 1.426 8.234 8.234 0 0 1 3.2.494 13.371 13.371 0 0 0-3.465 2.765s3.662-2.542 5.487-2.806a18.238 18.238 0 0 0-3.027-.837 49.89 49.89 0 0 1 4.969-1.042z" class="cls-3" transform="translate(-478.865 -635.138)"/>
                <path id="Path_22" d="M834.156 725.154a8.749 8.749 0 0 1 1.651 2.523l.828 1.709-.417-.262a37.867 37.867 0 0 0 1.551 3.993 26.413 26.413 0 0 1-2.35-4.8c.051.047.3.246.352.293a14.756 14.756 0 0 0-1.616-3.455z" class="cls-3" transform="translate(-811.237 -718.326)"/>
                <path id="Path_23" d="M612.018 822.823a.85.85 0 0 0-.352.02.42.42 0 1 1-.515.344c0-.012 0-.023.007-.035a1.83 1.83 0 0 0-.478 1 1.366 1.366 0 0 0 .872 1.673c.61.095 1.209-.5 1.337-1.33a1.366 1.366 0 0 0-.871-1.672z" class="cls-2" transform="translate(-597.737 -811.616)"/>
            </g>
            <g id="Group_15" transform="translate(20.653 28.642)">
                <path id="Path_24" d="M768.894 1226.005c-.063.05-.125.1-.19.146.063.075.124.15.185.226a1.173 1.173 0 0 1 .334.949c-.006.028-.013.053-.02.078a.58.58 0 0 1-.394.408c-.083-.009-.168-.023-.251-.036s-.149-.027-.224-.042c-.049-.008-.1-.019-.144-.028l-.1-.025-.036-.009a2.8 2.8 0 0 0-.394-.088h-.065a1 1 0 0 0-.118 0c-.115 0-.227.009-.339.008a2.244 2.244 0 0 1-.5-.069c-.031-.006-.061-.016-.091-.024s-.085-.025-.127-.041c-.064-.02-.127-.044-.19-.067a1.557 1.557 0 0 0-.928-.2.692.692 0 0 0-.138.05c-.1.046-.188.1-.284.149a1.558 1.558 0 0 1-.221.083 3.009 3.009 0 0 1-.426.088.312.312 0 0 0-.038.006 1.914 1.914 0 0 1-.7 0 .541.541 0 0 1-.119-.033.567.567 0 0 1-.066-.025.629.629 0 0 1-.38-.72 1 1 0 0 1 .168-.265 5.944 5.944 0 0 0 .649-1.052c.061-.129.119-.259.172-.391l.11-.288a2.419 2.419 0 0 1 .392-.726c.012-.014.023-.028.038-.042.028-.03.057-.057.085-.083a1.618 1.618 0 0 1 .231-.168l.1-.058.019-.01a3.007 3.007 0 0 1 .571-.207c.1-.027.194-.05.293-.071a.271.271 0 0 1 .039-.008c.042-.01.085-.019.125-.025l.1-.017a.026.026 0 0 1 .013 0c.039-.008.078-.014.118-.019l.125-.016a.368.368 0 0 0 .039-.006c.155-.016.312-.028.469-.031h.367a1.908 1.908 0 0 1 .864.19 2.3 2.3 0 0 1 .793 1c.2.37.4.739.605 1.1l-.053.045c-.049.042-.1.083-.147.125-.115.078-.215.159-.321.239z" class="cls-3" transform="translate(-762.177 -1222.828)"/>
                <path id="Path_25" d="M842.391 1249.425c-.006.028-.013.053-.02.078a.58.58 0 0 1-.394.408.845.845 0 0 1-.213.042c.036.077.071.154.1.23.066.157.124.315.176.475-.094-.008-.191-.011-.285-.011h-.262a3.613 3.613 0 0 1-1.214-.091 1.171 1.171 0 0 1-.762-.668.557.557 0 0 1-.033-.113.454.454 0 0 1-.008-.049l.082-.011.061-.008h.014a.035.035 0 0 0 .006-.009c.019-.036.041-.069.06-.105.033-.059.064-.116.094-.176a3.816 3.816 0 0 0 .219-.53 4.217 4.217 0 0 0 .22-1.138 3.728 3.728 0 0 1 .061-.724.791.791 0 0 1 .427-.557.256.256 0 0 1 .163-.019.3.3 0 0 1 .114.085 6.769 6.769 0 0 1 1.06 1.578c-.063.05-.125.1-.19.146.063.075.124.151.185.226a1.173 1.173 0 0 1 .339.941z" class="cls-4" transform="translate(-835.345 -1244.927)"/>
                <path id="Path_26" d="M753.595 1213.273a3.636 3.636 0 0 0-3.517-.207 2.243 2.243 0 0 0-.356.188 2.793 2.793 0 0 0-.251.139c-.056.033-.111.072-.163.11a1.541 1.541 0 0 0-.5.585.083.083 0 0 1-.008.017 2.928 2.928 0 0 0-.176.5c-.017.06-.031.118-.045.174-.03.127-.058.254-.1.376l-.033.067a6.641 6.641 0 0 1-.514.861c-.292.282-.549.571-.409 1.016v.008a.834.834 0 0 0 .445.829 5.66 5.66 0 0 0-.809 3.379c.113 1.136 2.02.811 2.756.739a10.817 10.817 0 0 0 2.414-.5c.533-.178 1.406-.39 1.741-.888.251-.373.087-.892 0-1.293a9.207 9.207 0 0 0-.238-.924q-.077-.241-.175-.475a.849.849 0 0 0 .5-.68c.008-.025.014-.05.02-.078a1.174 1.174 0 0 0-.334-.949l-.185-.226-.1-.125v-.006a2.955 2.955 0 0 1-.363-.61.084.084 0 0 0-.156-.012c-.014-.013-.036 0-.036.019a1.377 1.377 0 0 0 .158.64 3.473 3.473 0 0 0 .187.334l.023.039.086.178c.034.071.079.159.117.255.012.031.024.063.034.095-.061.208-.29.3-.563.348a.864.864 0 0 0-.154.006c-.038.006-.075.011-.11.021-.294.016-.592 0-.762.009a3.287 3.287 0 0 1-1.244-.3.666.666 0 0 0-.344-.137.88.88 0 0 0-.5.185l-.129.052c-.5.2-.98.164-1.472.336a1.129 1.129 0 0 1-.087-.078 1.162 1.162 0 0 1-.045-.2c-.066-.42.072-.478.3-.778l.083-.11a1.49 1.49 0 0 0 .149-.172 2.1 2.1 0 0 0 .265-.5 1.88 1.88 0 0 0 .063-.182v-.01a7 7 0 0 1 .5-1.162 1.5 1.5 0 0 1 .583-.517h.006a3.14 3.14 0 0 1 .544-.18.079.079 0 0 1 .028-.006 1.4 1.4 0 0 1 .14-.03q.054-.012.108-.019a.063.063 0 0 1 .025 0 .836.836 0 0 1 .094-.013l.127-.016a.348.348 0 0 0 .041 0c.055-.006.11-.008.165-.009h.3a2.412 2.412 0 0 1 1.389.4 6.088 6.088 0 0 1 .9 1.613c.047.086.1.171.144.257.049-.042.1-.083.147-.125l.053-.045c.081-.069.163-.14.243-.212.049-.041.1-.085.144-.127a5.7 5.7 0 0 0-1.144-1.874z" class="cls-2" transform="translate(-747.148 -1212.715)"/>
                <g id="Group_14" transform="translate(1.047 5.354)">
                    <path id="Path_27" d="M771.48 1332.467a9.942 9.942 0 0 1-.222 1.445 10.279 10.279 0 0 1-.339 1.537c-.051.138-.288.183-.321 0a4.357 4.357 0 0 1 .7-3.031c.05-.071.187-.06.181.046z" class="cls-3" transform="translate(-770.549 -1332.376)"/>
                </g>
            </g>
            <g id="Group_18" transform="translate(2.526 29.324)">
                <path id="Path_28" d="M413.625 1242.938l-.172-.041c-.116-.03-.23-.059-.345-.091l-.085-.024c-.093-.025-.185-.053-.276-.081-.031-.008-.063-.017-.094-.028-.169-.05-.337-.105-.5-.163l-.1-.036c-.006.03-.013.061-.022.091a.862.862 0 0 1-.144.3.625.625 0 0 1-.061.068 1.529 1.529 0 0 1-.127-.22c-.023-.047-.044-.1-.063-.144a.4.4 0 0 1-.284.226.453.453 0 0 1-.047.008.473.473 0 0 1-.155 0 .556.556 0 0 1-.165-.055.734.734 0 0 1-.154-.1 1.268 1.268 0 0 1-.165-.152c-.028-.031-.056-.064-.083-.1l-.006-.006c-.066-.078-.127-.16-.193-.237-.033-.035-.064-.068-.1-.1a1.115 1.115 0 0 0-.141-.116 1.359 1.359 0 0 0-.486-.229 1.232 1.232 0 0 0-.3-.042 2.768 2.768 0 0 1-.4-.011.522.522 0 0 1-.116-.031.354.354 0 0 1-.055-.027.714.714 0 0 1-.207-.177c-.075-.1-.144-.208-.22-.312a1.006 1.006 0 0 0-.2-.216.469.469 0 0 0-.082-.053 1.762 1.762 0 0 0-.729-.082.838.838 0 0 1-.088-.009.01.01 0 0 1-.006 0 .678.678 0 0 1-.146-.041.45.45 0 0 1-.287-.257.316.316 0 0 1-.016-.086.263.263 0 0 1 .009-.078.556.556 0 0 1 .245-.315 1.3 1.3 0 0 1 .195-.11 2.379 2.379 0 0 1 .226-.1 2.669 2.669 0 0 0 .864-.4 3.7 3.7 0 0 0 .448-.56 2.345 2.345 0 0 1 1.026-.754 1.679 1.679 0 0 1 .793-.11 2.543 2.543 0 0 1 .646.205l1.289.536a1.264 1.264 0 0 1 .491.3 1.216 1.216 0 0 1 .226.583 26.047 26.047 0 0 1 .378 3.346c-.017.009-.016.02-.016.031z" class="cls-3" transform="translate(-403.891 -1237.476)"/>
                <path id="Path_29" d="M470.707 1271.952c-.093-.025-.185-.053-.276-.082q-.047-.012-.094-.028c-.169-.05-.337-.105-.5-.163l-.105-.036c-.006.03-.013.061-.022.091a.862.862 0 0 1-.144.3.639.639 0 0 1-.061.068.587.587 0 0 1-.179.125.488.488 0 0 1-.1.036.726.726 0 0 0-.118-.18c-.017-.019-.036-.038-.055-.055s-.042-.038-.066-.057a1.393 1.393 0 0 0-.188-.125c-.094-.057-.193-.1-.289-.149h-.011a2.609 2.609 0 0 1-.234-.124.008.008 0 0 1-.006 0 1.179 1.179 0 0 1-.136-.093.583.583 0 0 1-.064-.049.791.791 0 0 1-.191-.232.466.466 0 0 1-.035-.08.387.387 0 0 1-.022-.075l-.619-.334.086-.021c.05-.012.1-.026.147-.044a.457.457 0 0 0 .064-.024 2.074 2.074 0 0 0 .8-.585 4.186 4.186 0 0 0 .654-1.13c.08-.193.194-.419.4-.437.19-.016.339.158.444.318a5.876 5.876 0 0 1 .92 3.165z" class="cls-4" transform="translate(-461.574 -1266.645)"/>
                <g id="Group_16" transform="translate(3.954 3.377)">
                    <path id="Path_30" d="M430.448 1303.688c.275.034.408.068.537.311a.837.837 0 0 0 .291.378 1.648 1.648 0 0 0 .93.022.046.046 0 0 0 .02-.077.927.927 0 0 0-.434-.236.634.634 0 0 1-.278-.091c-.095-.084-.137-.245-.218-.344-.275-.336-.518-.24-.867-.1a.068.068 0 0 0 .018.133z" class="cls-2" transform="translate(-430.382 -1303.423)"/>
                </g>
                <path id="Path_31" d="M352.282 1233.375c-.233-1.193-.114-2.964-.783-4.032a3.48 3.48 0 0 0-3.074-1.374c-1.253.118-2.04 1.488-3.134 2.005-.32.152-.833.218-.994.589a.618.618 0 0 0 .186.729 5.767 5.767 0 0 0-2.379 2.412c-.529 1.039 1.289 1.766 1.96 2.091a10.959 10.959 0 0 0 2.185.793 4.143 4.143 0 0 0 1.99.228c.449-.156.585-.641.729-1.051a9.265 9.265 0 0 0 .473-1.935.78.78 0 0 0 .749-.589 2.781 2.781 0 0 0-.046-1.38c-.02-.185-.044-.37-.065-.551v-.107a.062.062 0 0 0-.017-.047l-.011-.108c0-.052-.077-.083-.105-.028a3.419 3.419 0 0 0-.406 1.421v.224c-.047.133-.1.264-.181.3-.132.053-.314-.076-.448-.172a1.433 1.433 0 0 0-.257-.279.081.081 0 0 0-.031-.013.94.94 0 0 0-.085-.055c-.127-.072-.258-.076-.384-.152a3.661 3.661 0 0 0-.327-.237 1.946 1.946 0 0 1-.754-.543.927.927 0 0 0-.468-.326 4.2 4.2 0 0 0-1.357 0 .859.859 0 0 1-.314-.254l-.038-.049a.325.325 0 0 1 .063-.128l.115-.048a2.511 2.511 0 0 1 .486-.216c.072-.027.141-.052.2-.08l.014-.006a5.136 5.136 0 0 0 1.113-.64c.467-.372.745-.876 1.35-1.036a2.756 2.756 0 0 1 2 .463c1.541.814.894 2.742 1.337 4.194l.172.041c.058.013.141.036.213.052l.119.027c.122.04.233.016.204-.133z" class="cls-2" transform="translate(-342.01 -1227.956)"/>
                <g id="Group_17" transform="translate(1.293 3.917)">
                    <path id="Path_32" d="M372.7 1315.511a4.979 4.979 0 0 0-1.19 1.023c-.25.3-.672.708-.59 1.124a.2.2 0 0 0 .3.121c.353-.177.626-.673.869-.978.288-.362.529-.737.783-1.121a.124.124 0 0 0-.168-.168z" class="cls-3" transform="translate(-370.906 -1315.493)"/>
                </g>
            </g>
        </g>
        <g id="Group_22" transform="translate(38.689 7.484)">
            <g id="Group_21">
                <g id="Group_20">
                    <path id="Path_33" d="M1166.871 766.936a19.614 19.614 0 0 1-1.853 8.215 7.637 7.637 0 0 1-2.82 3.276 6.826 6.826 0 0 1-4.459 1.045 8.166 8.166 0 0 1-5.378-2.9 8.831 8.831 0 0 1-2.076-6.55 16.827 16.827 0 0 1 1.885-6.853 13.524 13.524 0 0 1 4.239-5.062 3.641 3.641 0 0 1 1.637-.689 6.574 6.574 0 0 1 5.906 1.93 9.96 9.96 0 0 1 2.689 5.444c.131.818.178 1.647.23 2.144zm-3.972-.678a7.527 7.527 0 0 0-.752-3.552 3.623 3.623 0 0 0-1.073-1.287 1.264 1.264 0 0 0-1.4-.129 5.487 5.487 0 0 0-1.589 1.176 13.262 13.262 0 0 0-2.121 3.112 19.665 19.665 0 0 0-1.919 5.312 6.983 6.983 0 0 0 .319 3.909 1.921 1.921 0 0 0 1.924 1.294 3.571 3.571 0 0 0 .973-.156 4.157 4.157 0 0 0 2-1.417 15.848 15.848 0 0 0 3.287-6.293 19.183 19.183 0 0 0 .352-1.97z" class="cls-1" transform="translate(-1150.269 -756.563)"/>
                    <path id="Path_34" d="M1554.03 754.155a1.72 1.72 0 0 0 .8-.938 19.486 19.486 0 0 1 1.9-3.029 4.037 4.037 0 0 1 1.785-1.582 10.666 10.666 0 0 1 3.176 1.966 10.287 10.287 0 0 1 .79.756 1.526 1.526 0 0 1 .4 1.368q-.32 2.665-.56 5.339c-.058.658 0 1.325 0 1.989a1.949 1.949 0 0 0 .457 1.284.945.945 0 0 1 .115.162c.157.306.573.554.333.958-.2.343-.6.189-.919.207a2.644 2.644 0 0 1-1.83-.652 6.3 6.3 0 0 1-1.524-1.82 2.45 2.45 0 0 1-.313-1.24c0-1.128.01-2.256 0-3.384a8.916 8.916 0 0 0-.08-1.957c-.2.077-.42.1-.53.213a11.085 11.085 0 0 0-1.016 1.223c-.567.816-1.135 1.635-1.631 2.495a8.961 8.961 0 0 0-.951 4.227c-.01.231.032.464.022.7a.389.389 0 0 1-.368.4 1.513 1.513 0 0 1-1.3-.361 2.6 2.6 0 0 1-.4-.439c-.408-.6-.823-1.2-1.194-1.831a3.4 3.4 0 0 1-.442-1.513 87.346 87.346 0 0 1-.039-11.638 20.6 20.6 0 0 1 .882-4.888 6.48 6.48 0 0 1 .869-1.89c.365-.507.65-.6 1.182-.291a3.647 3.647 0 0 1 .935.727c.435.5.807 1.048 1.2 1.582a1.781 1.781 0 0 1 .168 1.961 14.126 14.126 0 0 0-1.115 3.5c-.258 1.4-.444 2.816-.659 4.225-.065.426-.138.852-.177 1.28a8.067 8.067 0 0 0 .034.891z" class="cls-1" transform="translate(-1532.637 -739.803)"/>
                    <path id="Path_35" d="M2124.876 903.089a2.208 2.208 0 0 0 .247-.473 7.44 7.44 0 0 0 .113-2.176c-.111-.876-.367-1.16-1.207-1.342a3.967 3.967 0 0 0-3.229.579 5.455 5.455 0 0 1-1.139.594 2.445 2.445 0 0 1-.875.108c-.3 0-.461-.224-.441-.541a2.635 2.635 0 0 1 .617-1.441 5.949 5.949 0 0 1 2.915-1.983c.466-.158.97-.2 1.452-.319a3.129 3.129 0 0 1 2.461.508 10.549 10.549 0 0 1 2.556 2.34 2.166 2.166 0 0 1 .527 1.554c-.08 1.589-.133 3.18-.17 4.771-.022.961.012 1.923.01 2.885 0 .729.025 1.462-.04 2.186-.091 1.021-.812 1.412-1.762.985a2.806 2.806 0 0 1-.736-.5 1.061 1.061 0 0 0-1.436-.1c-.563.347-1.143.672-1.733.971a10.561 10.561 0 0 1-1.1.429 2.852 2.852 0 0 1-2.488-.31 5.473 5.473 0 0 1-2.778-3.594 5.764 5.764 0 0 1 1.1-5.068 3.769 3.769 0 0 1 1.759-1.246 2.387 2.387 0 0 1 1.558-.055c.881.288 1.758.589 2.638.878.372.121.748.228 1.181.36zm-.414 3.277a2.7 2.7 0 0 0-.5-.487 4.368 4.368 0 0 0-2.285-.537 1.577 1.577 0 0 0-1.237.527c-.375.458-.771.9-1.1 1.389a1.328 1.328 0 0 0-.141 1.233c.19.544.374.668.965.549a3.308 3.308 0 0 0 .752-.231 18.058 18.058 0 0 0 2.74-1.58 2.025 2.025 0 0 0 .806-.863z" class="cls-1" transform="translate(-2073.239 -889.026)"/>
                    <path id="Path_36" d="M2422.8 902.928a4.991 4.991 0 0 0 .633.038 28.216 28.216 0 0 0 3.421-.6c1.107-.2 2.213-.409 3.32-.609a2.736 2.736 0 0 1 1.193-.031 1.1 1.1 0 0 1-.045 1.138 3.032 3.032 0 0 1-1.314 1.318c-.829.417-1.65.854-2.5 1.225a42.581 42.581 0 0 1-4.759 1.734 11.213 11.213 0 0 1-1.361.262 1.355 1.355 0 0 1-1.107-.332 6.021 6.021 0 0 1-1.941-2.595 1 1 0 0 1 .067-.938 27.881 27.881 0 0 1 3.206-4.542c.96-1.1 1.963-2.157 2.946-3.234a2.923 2.923 0 0 0 .388-.451.636.636 0 0 0 .105-.452c-.085-.236-.329-.171-.516-.129-.356.079-.7.188-1.059.272q-.774.183-1.552.349a3.118 3.118 0 0 1-3.448-2.574 2.9 2.9 0 0 1-.018-.5.532.532 0 0 1 .472-.554 27.407 27.407 0 0 1 6.392-.819 20.53 20.53 0 0 1 2.071.234 2.515 2.515 0 0 1 1.609 1.086 7.636 7.636 0 0 1 1.111 1.99c.171.453.122.636-.275.947-.912.716-1.846 1.4-2.745 2.136a21.018 21.018 0 0 0-3.694 3.879 10.04 10.04 0 0 0-.58.925.783.783 0 0 0-.02.827z" class="cls-1" transform="translate(-2361.528 -884.142)"/>
                    <path id="Path_37" d="M1852.581 912.511a.856.856 0 0 1 .653-.724.888.888 0 0 1 .761.113c.556.36 1.119.712 1.657 1.1a1.514 1.514 0 0 1 .627 1.075c.224 1.473.5 2.937.771 4.4a2.838 2.838 0 0 0 .722 1.608.806.806 0 0 0 .368-.646c.144-.715.269-1.433.416-2.147a18.455 18.455 0 0 1 2.837-6.735 1.3 1.3 0 0 1 .875-.722 8.151 8.151 0 0 1 .741.535 7.11 7.11 0 0 1 1.366 1.822 1.3 1.3 0 0 1-.006 1.409c-.63 1.09-1.231 2.2-1.822 3.31a16.179 16.179 0 0 0-1.971 6.819 4.8 4.8 0 0 1-.084.69c-.144.722-.348.891-1.1.805a9.938 9.938 0 0 1-2.327-.485 2.561 2.561 0 0 1-1.375-1.079 15.021 15.021 0 0 1-1.736-4.1 46.876 46.876 0 0 1-.764-5.008 4.822 4.822 0 0 0-.609-2.04z" class="cls-1" transform="translate(-1821.159 -902.224)"/>
                    <path id="Path_38" d="M2204.949 778.048a3.991 3.991 0 0 1-1.812 2.468 8.434 8.434 0 0 1-4.89 1.386 1.892 1.892 0 0 1-1.481-.676 4.788 4.788 0 0 1-.974-1.712c-.027-.079.028-.186.058-.351a3.415 3.415 0 0 1 .569 0 13.206 13.206 0 0 0 5.227-.106 22.291 22.291 0 0 0 2.253-.762 1.9 1.9 0 0 1 1.05-.247z" class="cls-1" transform="translate(-2149.007 -776.324)"/>
                </g>
            </g>
        </g>
    </g>
</svg>
